<?xml version="1.0" encoding="UTF-8"?>
<svg data-name="Layer 1" viewBox="0 0 1124 133.9" xmlns="http://www.w3.org/2000/svg">
<defs>
<style>.cls-1{fill:#fff;}</style>
</defs>
<title>Logotype_White</title>
<path class="cls-1" transform="translate(-77 -292.1)" d="M119.49,379.37a20.69,20.69,0,0,0,8.13-1.61,19.23,19.23,0,0,0,6.59-4.52,22.1,22.1,0,0,0,4.37-6.75,21.17,21.17,0,0,0-11-27.77,20.06,20.06,0,0,0-8.13-1.68,20.92,20.92,0,0,0-8.36,1.68,22.49,22.49,0,0,0-6.83,4.53A20.73,20.73,0,0,0,99.7,350,20.41,20.41,0,0,0,98,358.2a21.27,21.27,0,0,0,1.61,8.29,20.83,20.83,0,0,0,4.53,6.75,20.62,20.62,0,0,0,6.83,4.52,22,22,0,0,0,8.51,1.61m1.84,18.87a43.75,43.75,0,0,1-12.81-1.84,31.41,31.41,0,0,1-10.2-5.06v5.83H77V292.1H98.32v32.67a32.32,32.32,0,0,1,10.2-5.14,42.47,42.47,0,0,1,12.81-1.92,38.09,38.09,0,0,1,15.26,3.15,39.72,39.72,0,0,1,12.65,8.58,42,42,0,0,1,8.59,12.89,39.5,39.5,0,0,1,3.22,15.87,38.76,38.76,0,0,1-3.22,15.88,41.49,41.49,0,0,1-8.59,12.66,39.77,39.77,0,0,1-27.91,11.5"/>
<path class="cls-1" transform="translate(-77 -292.1)" d="M208.29,334.43a20.14,20.14,0,0,0-12.5,3.76,20.49,20.49,0,0,0-7.13,10.51h38.19q-1.69-7.21-6.9-10.74a20.36,20.36,0,0,0-11.66-3.53m37.27,45.86A41.78,41.78,0,0,1,230.61,394q-9.12,5-22.32,5a44.43,44.43,0,0,1-17.1-3.14,39.59,39.59,0,0,1-13-8.59,37,37,0,0,1-8.36-13,44.64,44.64,0,0,1-2.91-16.26,42.82,42.82,0,0,1,3-15.95A38.91,38.91,0,0,1,178.38,329a40,40,0,0,1,13.19-8.82,46.35,46.35,0,0,1,33.59-.16,36.6,36.6,0,0,1,12.51,8.44,37.13,37.13,0,0,1,7.89,12.66A44.39,44.39,0,0,1,248.32,357c0,1.53,0,3.12-.15,4.75s-.15,2.56-.15,2.76H187.89a20.83,20.83,0,0,0,7.13,12q5.44,4.46,13.73,4.45a24.22,24.22,0,0,0,20.86-10.43Z"/>
<path class="cls-1" transform="translate(-77 -292.1)" d="M303.39,318.48v19H284.06v31.6c0,3.58.85,6.11,2.53,7.59s4.32,2.22,7.9,2.22h8.9v18.26H293q-15.81,0-23-6.83t-7.21-20.17V337.5H251.39v-19h11.35V298.23h21.32v20.25Z"/>
<path class="cls-1" transform="translate(-77 -292.1)" d="M361.36,318.48v19H342v31.6q0,5.37,2.53,7.59t7.9,2.22h8.89v18.26H350.93q-15.8,0-23-6.83t-7.21-20.17V337.5H309.37v-19h11.35V298.23H342v20.25Z"/>
<path class="cls-1" transform="translate(-77 -292.1)" d="M367.35,397.17h21.31V318.48H367.35Zm0-85.44h21.31V292.1H367.35Z"/>
<path class="cls-1" transform="translate(-77 -292.1)" d="M415.66,326.46a28.68,28.68,0,0,1,8.74-6.37,30.67,30.67,0,0,1,14.11-3,32.67,32.67,0,0,1,12.5,2.3,27.7,27.7,0,0,1,9.59,6.44,28.21,28.21,0,0,1,6.14,10.05,38,38,0,0,1,2.14,13v48.32H447.72V352.53q0-7-3.76-11.43t-10.66-4.37q-7.83,0-12.58,4.61T416,354.22v42.95H394.65V318.48h21Z"/>
<path class="cls-1" transform="translate(-77 -292.1)" d="M515.82,336.43A19.26,19.26,0,0,0,508,338a20.16,20.16,0,0,0-6.44,4.44,21.64,21.64,0,0,0-4.37,6.6,20.3,20.3,0,0,0-1.61,8.05A20.55,20.55,0,0,0,508,376.23a19.42,19.42,0,0,0,7.83,1.61,21.58,21.58,0,0,0,8.43-1.61,21.17,21.17,0,0,0,6.67-4.38,19.79,19.79,0,0,0,4.45-6.51,20.52,20.52,0,0,0,1.61-8.21,20.13,20.13,0,0,0-1.61-8.05,20.83,20.83,0,0,0-4.45-6.6,20.39,20.39,0,0,0-6.74-4.44,21.65,21.65,0,0,0-8.36-1.61M515.66,426q-13.33,0-22.62-4.83a42.71,42.71,0,0,1-15.41-13.57L493,397.17a26.39,26.39,0,0,0,9.13,7.89,27.69,27.69,0,0,0,13.27,3q10,0,15.64-4.15t5.68-12.58v-2.14q-8.59,7.21-22.7,7.21a38.35,38.35,0,0,1-15-3,39.11,39.11,0,0,1-21-20.79,40.23,40.23,0,0,1,0-31.21,39.66,39.66,0,0,1,21-21.09,37.54,37.54,0,0,1,15-3.07,38.24,38.24,0,0,1,13.5,2.15,35.17,35.17,0,0,1,9.2,4.91v-5.83h21.16v71a36.59,36.59,0,0,1-2.76,14.27A33.11,33.11,0,0,1,547,415.34a38.23,38.23,0,0,1-13.26,7.82,53.22,53.22,0,0,1-18,2.84"/>
<path class="cls-1" transform="translate(-77 -292.1)" d="M606,336.27a21.77,21.77,0,0,0-8.36,1.61,19.81,19.81,0,0,0-6.75,4.53,20.86,20.86,0,0,0-4.45,6.9,23.24,23.24,0,0,0-1.61,8.74,24.26,24.26,0,0,0,1.53,8.75,20.82,20.82,0,0,0,4.3,6.9A20.28,20.28,0,0,0,605.55,380a21.72,21.72,0,0,0,15.33-6.28,21.23,21.23,0,0,0,4.6-6.9,22.16,22.16,0,0,0,1.69-8.75,23,23,0,0,0-1.61-8.74,21,21,0,0,0-4.45-6.9,19.87,19.87,0,0,0-6.74-4.53,21.84,21.84,0,0,0-8.36-1.61m0-19.33a43.23,43.23,0,0,1,16.79,3.23,42.21,42.21,0,0,1,13.42,8.74,40,40,0,0,1,8.9,13,40.57,40.57,0,0,1,3.22,16.1,40,40,0,0,1-12.12,29,42.21,42.21,0,0,1-13.42,8.74A43.23,43.23,0,0,1,606,399a44.33,44.33,0,0,1-16.8-3.14,41.07,41.07,0,0,1-13.42-8.66,39.06,39.06,0,0,1-8.82-13,41.25,41.25,0,0,1-3.15-16.11,40.81,40.81,0,0,1,12-29.14,41.19,41.19,0,0,1,13.34-8.74,43.25,43.25,0,0,1,16.8-3.23"/>
<path class="cls-1" transform="translate(-77 -292.1)" d="M695.88,379.37a22.06,22.06,0,0,0,8.52-1.61,20.72,20.72,0,0,0,6.83-4.52,21,21,0,0,0,4.52-6.75,21.23,21.23,0,0,0,1.61-8.29,20.58,20.58,0,0,0-1.69-8.2,21,21,0,0,0-4.6-6.75,22.57,22.57,0,0,0-6.82-4.53,21.17,21.17,0,0,0-8.37-1.68,20,20,0,0,0-8.2,1.68A20.67,20.67,0,0,0,676.79,350a21.92,21.92,0,0,0,0,16.49,22.1,22.1,0,0,0,4.37,6.75,19.34,19.34,0,0,0,6.52,4.52,20.51,20.51,0,0,0,8.2,1.61m21.17,12a31.22,31.22,0,0,1-10.2,5.07,43.63,43.63,0,0,1-12.8,1.84,38.63,38.63,0,0,1-15.34-3.07,39.29,39.29,0,0,1-12.58-8.43,41.49,41.49,0,0,1-8.59-12.66,38.73,38.73,0,0,1-3.22-15.88,39.5,39.5,0,0,1,3.22-15.87,42,42,0,0,1,8.59-12.89,39.86,39.86,0,0,1,12.58-8.58,37.84,37.84,0,0,1,15.34-3.15,42.36,42.36,0,0,1,12.8,1.92,32.32,32.32,0,0,1,10.2,5.14V292.1h21.32V397.16H717.05Z"/>
<path class="cls-1" transform="translate(-77 -292.1)" d="M785.92,379.37a22,22,0,0,0,8.51-1.61,20.73,20.73,0,0,0,11.35-11.27,21.05,21.05,0,0,0,1.61-8.29,20.57,20.57,0,0,0-1.68-8.2,21,21,0,0,0-4.6-6.75,22.62,22.62,0,0,0-6.83-4.53,21.12,21.12,0,0,0-8.36-1.68,20,20,0,0,0-8.2,1.68,21.56,21.56,0,0,0-10.89,27.77,22.1,22.1,0,0,0,4.37,6.75,19.34,19.34,0,0,0,6.52,4.52,20.44,20.44,0,0,0,8.2,1.61m21.17,12a31.22,31.22,0,0,1-10.2,5.07,43.75,43.75,0,0,1-12.81,1.84,38.7,38.7,0,0,1-15.34-3.07,39.13,39.13,0,0,1-12.57-8.43,41.14,41.14,0,0,1-8.59-12.66,38.73,38.73,0,0,1-3.22-15.88,39.5,39.5,0,0,1,3.22-15.87,41.61,41.61,0,0,1,8.59-12.89,39.7,39.7,0,0,1,12.57-8.58,37.91,37.91,0,0,1,15.34-3.15,42.47,42.47,0,0,1,12.81,1.92,32.32,32.32,0,0,1,10.2,5.14V292.1h21.32V397.16H807.09Z"/>
<path class="cls-1" transform="translate(-77 -292.1)" d="M856,372.47a10.42,10.42,0,0,0,.69,3.68,8.68,8.68,0,0,0,2.37,3.37,14,14,0,0,0,4.45,2.61,19.64,19.64,0,0,0,7.06,1.07q6,0,8.82-2.29c1.89-1.54,2.83-3.22,2.83-5.07a4.82,4.82,0,0,0-1.07-3.14,7.24,7.24,0,0,0-2.91-2.07,24.3,24.3,0,0,0-4.37-1.3c-1.69-.36-3.51-.7-5.45-1q-5.22-.93-11-2a37.56,37.56,0,0,1-10.58-3.61,21.81,21.81,0,0,1-8-7.13Q835.77,351,835.77,343a22,22,0,0,1,2.3-10,24.72,24.72,0,0,1,6.52-8.06,32,32,0,0,1,10.2-5.44,42.86,42.86,0,0,1,13.5-2q15,0,23.93,7.05t9.81,19H880.71a18.66,18.66,0,0,0-.69-4,6.86,6.86,0,0,0-1.92-3.15,9.83,9.83,0,0,0-3.68-2.07,18.71,18.71,0,0,0-5.83-.77,17.88,17.88,0,0,0-7.89,1.61,5.49,5.49,0,0,0-3.3,5.3,5,5,0,0,0,1.38,3.6,10.16,10.16,0,0,0,3.83,2.38,34.34,34.34,0,0,0,5.68,1.53q3.21.62,6.75,1.23,5.06.92,10.35,2.07a34.83,34.83,0,0,1,9.66,3.6,20.81,20.81,0,0,1,7.14,6.52q2.76,4.08,2.76,10.66a24.49,24.49,0,0,1-2.76,12,23.57,23.57,0,0,1-7.52,8.21,33.56,33.56,0,0,1-11.27,4.75,60.67,60.67,0,0,1-13.88,1.54,48.4,48.4,0,0,1-14.5-2,33.82,33.82,0,0,1-10.89-5.52,25.84,25.84,0,0,1-7.06-8.28,23.29,23.29,0,0,1-2.68-10.43Z"/>
<rect class="cls-1" x="833.93" y="96.17" width="7.67" height="8.9"/>
<path class="cls-1" transform="translate(-77 -292.1)" d="M998.51,379.07a41.4,41.4,0,0,1-14,13.95q-8.59,5.22-21.32,5.22a38.94,38.94,0,0,1-15.57-3.07,37,37,0,0,1-12.27-8.43,38.2,38.2,0,0,1-8-12.58,42.19,42.19,0,0,1-2.84-15.65,41.12,41.12,0,0,1,2.84-15.41,37.44,37.44,0,0,1,8-12.43,37.89,37.89,0,0,1,12.27-8.36,39.11,39.11,0,0,1,15.57-3.06q13.35,0,21.7,5.29a41.46,41.46,0,0,1,13.58,14l-5.83,4a34.54,34.54,0,0,0-11.35-11.66q-6.9-4.29-18.1-4.29a32,32,0,0,0-12.65,2.45A29.14,29.14,0,0,0,934.32,346a35.49,35.49,0,0,0-2.23,12.66,34.37,34.37,0,0,0,2.31,12.65,31.1,31.1,0,0,0,6.44,10.28,29.17,29.17,0,0,0,9.89,6.82,31.85,31.85,0,0,0,12.65,2.46q11.21,0,18-4.22a34.17,34.17,0,0,0,11.27-11.58Z"/>
<path class="cls-1" transform="translate(-77 -292.1)" d="m1044.1 326.46a33 33 0 0 0-12.81 2.45 29.76 29.76 0 0 0-10.12 6.83 32.63 32.63 0 0 0-6.67 10.27 33 33 0 0 0-2.46 12.81 33 33 0 0 0 9.13 22.93 29.9 29.9 0 0 0 10.12 6.83 33.18 33.18 0 0 0 12.81 2.45 32.56 32.56 0 0 0 12.73-2.45 30.1 30.1 0 0 0 10-6.83 33.38 33.38 0 0 0 0-46 30 30 0 0 0-10-6.83 32.39 32.39 0 0 0-12.73-2.45m0-7.21a39.34 39.34 0 1 1-15.64 3.06 39.21 39.21 0 0 1 15.64-3.06"/>
<path class="cls-1" transform="translate(-77 -292.1)" d="M1097,331.67a26.19,26.19,0,0,1,8.66-8.59q5.91-3.82,15.42-3.83a28.53,28.53,0,0,1,15.41,4.06,24.76,24.76,0,0,1,9.74,11.43,31.17,31.17,0,0,1,3.91-5.68,28.08,28.08,0,0,1,13.27-8.51,33.18,33.18,0,0,1,9.67-1.3q12.72,0,20.31,8.05T1201,349v48.16h-7.52V349.62c0-7.37-1.86-13.06-5.59-17.11s-8.93-6.06-15.57-6.06q-10.44,0-16.87,6.29T1149,350.53v46.63h-7.51V349.62c0-7.37-1.87-13.06-5.6-17.11s-8.92-6.06-15.57-6.06q-10.57,0-17,6.6T1097,351.61v45.55h-7.52V320.48H1097Z"/>
</svg>
