<?xml version="1.0" encoding="UTF-8"?>
<svg enable-background="new 0 0 689.83 260.14" version="1.1" viewBox="0 0 689.83 260.14" xml:space="preserve" xmlns="http://www.w3.org/2000/svg" xmlns:xlink="http://www.w3.org/1999/xlink">



	<defs>
		<path id="a" d="m315.93 20.6c-4.19-2.66-9.42-3.98-15.67-3.98-5.79 0-10.83 1.33-15.14 3.98-4.31 2.66-7.56 6.44-9.74 11.33-2.19 4.9-3.28 11.01-3.28 18.33v41.26c0 7.56 1.09 13.84 3.28 18.86 2.18 5.02 5.37 8.83 9.56 11.42 4.19 2.6 9.3 3.9 15.32 3.9 6.26 0 11.48-1.3 15.67-3.9s7.32-6.43 9.39-11.51c2.06-5.07 3.1-11.33 3.1-18.77v-41.26c0-7.44-1.04-13.57-3.1-18.42-2.07-4.83-5.2-8.58-9.39-11.24zm-6.11 74.29c0 3.43-0.38 6.17-1.15 8.23-0.77 2.07-1.8 3.6-3.1 4.61-1.3 1-3.07 1.5-5.31 1.5-2.01 0-3.66-0.5-4.96-1.5s-2.33-2.54-3.1-4.61c-0.77-2.06-1.15-4.81-1.15-8.23v-47.81c0-3.19 0.38-5.81 1.15-7.88 0.77-2.06 1.8-3.66 3.1-4.78s2.95-1.68 4.96-1.68c2.24 0 4.04 0.56 5.4 1.68s2.39 2.72 3.1 4.78c0.71 2.07 1.06 4.69 1.06 7.88v47.81zm65.48-76.15h18.24v104.84h-20.01l-17.71-58.86v58.86h-18.24v-104.84h20.01l17.81 59.66 0.08-8.66-0.18-51zm27.8 0h43.39v15.94h-24.44v27.1h22.14v15.58h-22.14v29.75h24.44v16.47h-43.39v-104.84zm87.65 0h19.13l-19.48 75.97v28.87h-18.77v-28.87l-19.13-75.97h19.48l9.12 53.66 9.65-53.66zm199.08 134.44v15.76h-14.88v89.08h-18.95v-89.08h-15.05v-15.76h48.88zm-100.54 0h43.39v15.94h-24.44v27.1h22.14v15.58h-22.14v29.75h24.44v16.47h-43.39v-104.84zm-416.22 2.48c-3.78-1.65-8.27-2.48-13.46-2.48h-27.63v104.84h18.77v-31.88h9.39c5.19 0 9.62-0.86 13.28-2.57s6.49-4.52 8.5-8.41c2.01-3.9 3.01-8.85 3.01-14.88v-21.96c0-5.9-1.04-10.74-3.1-14.52-2.06-3.77-4.98-6.49-8.76-8.14zm-7.08 44.8c0 3.07-0.71 5.4-2.13 7-1.42 1.59-3.78 2.39-7.08 2.39h-6.02v-40.91h6.02c3.3 0 5.67 0.83 7.08 2.48 1.42 1.65 2.13 3.84 2.13 6.55v22.49zm28.11-47.28h43.39v15.94h-24.44v27.1h22.14v15.58h-22.14v29.75h24.44v16.47h-43.39v-104.84zm370.06 45.47 20.88 59.37h-20.9l-12.27-39.15-8.28 12.82v26.33h-18.59v-104.67h18.59v48.96l18.59-49.13h21.07l-19.09 45.47zm-152.85-45.3-16.65 104.66h18.77l2.46-18.06h19.02l2.43 18.06h19.13l-16.82-104.66h-28.34zm6.79 70.49 7.03-51.53h0.71l6.92 51.53h-14.66zm-314.27-70.66h18.59v76.86c0 6.61-0.97 12.1-2.92 16.47s-4.9 7.73-8.85 10.09c-3.96 2.36-8.94 3.54-14.96 3.54-6.38 0-11.57-1.12-15.58-3.36s-7.03-5.58-9.03-10.01c-2.01-4.43-3.01-10.01-3.01-16.74v-76.86h18.95v78.98c0 2.6 0.29 4.72 0.89 6.38 0.59 1.66 1.44 2.92 2.57 3.81 1.12 0.89 2.86 1.33 5.22 1.33 1.77 0 3.28-0.44 4.52-1.33s2.15-2.15 2.74-3.81c0.59-1.65 0.89-3.78 0.89-6.38v-78.97zm404.62 5.93c-4.67-3.95-11.01-5.93-19.04-5.93h-26.92v104.84h18.77v-40.91h6.91c2.95 0 5.07 0.74 6.38 2.21 1.3 1.48 1.95 3.4 1.95 5.76v32.94h18.95v-26.59c0-7.91-2.33-13.84-7-17.8-0.67-0.57-1.39-1.09-2.13-1.58l0.06 0.02c2.26-1.57 4.13-3.49 5.61-5.76 2.3-3.54 3.45-7.97 3.45-13.28v-16.12c0-7.91-2.33-13.84-6.99-17.8zm-27.19 42.94v-33.12h6.91c2.95 0 5.07 0.74 6.38 2.21 1.3 1.48 1.95 3.4 1.95 5.76v16.82c0 2.6-0.65 4.64-1.95 6.11-1.3 1.48-3.43 2.21-6.38 2.21h-6.91zm-188.26-42.94c-4.67-3.95-11.01-5.93-19.04-5.93h-26.92v104.84h18.77v-40.91h6.91c2.95 0 5.07 0.74 6.38 2.21 1.3 1.48 1.95 3.4 1.95 5.76v32.94h18.95v-26.59c0-7.91-2.33-13.84-7-17.8-0.67-0.57-1.39-1.09-2.13-1.58l0.06 0.02c2.26-1.57 4.13-3.49 5.61-5.76 2.3-3.54 3.45-7.97 3.45-13.28v-16.12c0.01-7.91-2.32-13.84-6.99-17.8zm-27.18 42.94v-33.12h6.91c2.95 0 5.07 0.74 6.38 2.21 1.3 1.48 1.95 3.4 1.95 5.76v16.82c0 2.6-0.65 4.64-1.95 6.11-1.3 1.48-3.43 2.21-6.38 2.21h-6.91zm-27.78-202.05h24.9v123.58h-19.3l1.59-87.45-21.78 78.54-21.78-78.54 1.59 87.45h-19.3v-123.58h24.9l14.6 60.52 14.58-60.52zm-181.9 204.11c1.77 4.01 2.66 8.85 2.66 14.52v14.6c0 5.43-1.12 10.15-3.36 14.17-2.24 4.01-5.67 7.14-10.27 9.39-4.6 2.24-9.68 3.36-15.23 3.36-6.49 0-11.98-1.12-16.47-3.36s-7.85-5.61-10.09-10.09c-2.26-4.5-3.38-9.99-3.38-16.49v-12.47h18.95v12.47c0 2.24 0.35 4.37 1.06 6.38s1.86 3.6 3.45 4.78 3.75 1.77 6.46 1.77c3.19 0 5.58-0.97 7.17-2.92s2.39-4.45 2.39-7.53v-13.71c0-3.42-0.5-6.14-1.51-8.15-1-2.01-2.48-3.63-4.43-4.87s-20.96-11.22-23.73-13.64c-2.78-2.42-4.9-5.37-6.38-8.85s-2.21-7.88-2.21-13.19v-12.47c0-5.07 1.15-9.59 3.45-13.55 2.3-3.95 5.58-6.91 9.83-8.85 4.25-1.95 9.27-2.92 15.05-2.92 9.33 0 16.44 2.57 21.34 7.7 4.9 5.14 7.35 12.31 7.35 21.52v11.23h-18.39v-11.23c0-3.78-0.77-6.76-2.3-8.94-1.54-2.18-4.19-3.28-7.97-3.28-2.13 0-3.81 0.38-5.05 1.15s-2.21 1.77-2.92 3.01-1.06 2.63-1.06 4.16v12.47c0.12 2.72 0.65 4.93 1.59 6.64s2.15 3.07 3.63 4.07 19.01 10.01 22.49 12.84c3.48 2.84 6.11 6.26 7.88 10.28zm307.62-69.67h24.9v123.58h-19.3l1.59-87.45-21.78 78.54-21.78-78.54 1.59 87.45h-19.3v-123.58h24.9l14.6 60.52 14.58-60.52z"/>
	</defs>
	<radialGradient id="b" cx="343.18" cy="41.502" r="407.86" gradientUnits="userSpaceOnUse">
		<stop stop-color="#66528C" offset=".1187"/>
		<stop stop-color="#341756" offset=".9766"/>
	</radialGradient>
	<use fill="url(#b)" overflow="visible" xlink:href="#a"/>
	<clipPath>
		<use overflow="visible" xlink:href="#a"/>
	</clipPath>

</svg>
