<svg id="Layer_1" data-name="Layer 1" xmlns="http://www.w3.org/2000/svg" viewBox="0 0 939 331.11"><defs><style>.cls-1{fill:#1d1d1b;}.cls-2{fill:#fff;}.cls-3,.cls-4{fill:none;stroke:#b2b2b2;stroke-linecap:round;stroke-linejoin:round;}.cls-3{stroke-dasharray:0 3.01;}.cls-4{stroke-dasharray:0 3.01;}</style></defs><title>SJA logo new</title><path class="cls-1" d="M1225,383.58c0,91.4-73.32,165.53-163.71,165.53S897.6,475,897.6,383.58,970.87,218,1061.29,218,1225,292.11,1225,383.58" transform="translate(-286 -218)"/><polygon class="cls-2" points="853.93 165.58 909.5 109.31 775.29 165.58 909.5 221.78 853.93 165.58"/><polygon class="cls-2" points="775.29 86.02 719.72 29.78 775.29 165.58 830.91 29.78 775.29 86.02"/><polygon class="cls-2" points="641.01 109.31 696.63 165.58 641.01 221.78 775.29 165.58 641.01 109.31"/><polygon class="cls-2" points="775.29 165.58 719.72 301.33 775.29 245.11 830.91 301.33 775.29 165.58"/><path class="cls-1" d="M649.11,440.31a49.21,49.21,0,0,0-20,4.59l.44,13.52a29.14,29.14,0,0,1,17.76-6.59c8.85,0,13,3.74,13,13.5,0,0-7.72-.67-8.42-.67S623.44,462,624.6,485.37c.76,15.3,13.72,18.69,28.82,18.69,12.85,0,19.25-2.39,19.25-2.39h0V465.49c0-17.89-6-25.18-23.57-25.18m11.18,50.83s-3.29,1.21-11.69,1.21c-7.12,0-11.32-3-11.32-8.33,0-6.95,10.25-9.58,23-7Z" transform="translate(-286 -218)"/><path class="cls-1" d="M334.12,420.55l0,0a30.18,30.18,0,0,0-7.88-1.09A12.73,12.73,0,0,0,314,427.43l-28,75.65h16.25l6.85-18.88h31.7l6.72,18.88h17.34Zm-20.55,50.68,11.52-34,11.32,34Z" transform="translate(-286 -218)"/><path class="cls-1" d="M607.92,419.5c-4.11,0-8.77,2.56-8.77,6.21h0v77.37h15V420.63c-.37-.21-2.32-1.13-6.19-1.13" transform="translate(-286 -218)"/><path class="cls-1" d="M787.87,455.71a22,22,0,0,0-10.26-2.23c-9.36,0-15.32,7.21-15.32,18.72,0,11.26,5.06,19.93,15.65,19.93a30.07,30.07,0,0,0,11.6-2.85l.71,13.18a46.84,46.84,0,0,1-15.09,2c-19.09,0-28.66-13.64-28.66-32.28,0-17.69,9.91-31.7,28.07-31.7a47.4,47.4,0,0,1,14.66,2Z" transform="translate(-286 -218)"/><path class="cls-1" d="M844.85,499.64c-5.53,3.2-11.84,4.84-19.93,4.84-19.15,0-30.3-11.59-30.3-31.63,0-17.67,8.87-32.28,26.92-32.28,21.51,0,27.58,15.55,27.58,36.9H809c.67,9.82,7.17,15.42,16.55,15.42,7.32,0,13.62-2.89,19.27-6.21Zm-10.16-33.09c-.44-7.71-3.88-13.88-12.32-13.88S809.7,458.36,809,466.55Z" transform="translate(-286 -218)"/><path class="cls-1" d="M386.34,503.08V467.34c0-7.58,2.09-13.58,10.35-13.58,8.59,0,9.47,8,9.47,13.66v35.66h15v-35c0-7.19,1.39-14.34,9.73-14.34,9.23,0,10.13,6.8,10.13,13.66v35.66h15V464.92c0-7.67-1.11-24.48-21.66-24.48-14.15,0-19,6.85-20.63,9.84-1.4-3-6.22-9.84-19.63-9.84-21.69,0-22.8,16.59-22.8,24.33v38.31Z" transform="translate(-286 -218)"/><path class="cls-1" d="M711.08,440.43c-15.78,0-26.51,8.8-26.51,24.34l0,38.31h15V471.23c0-7.36.93-17.42,11.5-17.42s11.43,10.06,11.43,17.42v31.85h15V464.83c0-15.38-10.91-24.4-26.4-24.4" transform="translate(-286 -218)"/><path class="cls-1" d="M801.72,296.53c-26.19,0-44,14-44,38.71v60.93h25V345.48c0-11.66,1.5-27.69,19-27.69s19,16,19,27.69v50.69h24.84V335.31c0-24.47-18.11-38.78-43.81-38.78" transform="translate(-286 -218)"/><path class="cls-1" d="M560.14,504c15.78,0,26.52-8.43,26.52-24.35l0-38.22s-1.94-1.06-6.35-1.06-8.74,2.44-8.74,5.95V473.2c0,7.34-.9,17.42-11.46,17.42s-11.46-10.08-11.46-17.42V441.35s-1.72-1-6.33-1c-5.61,0-8.68,3.53-8.68,6,0,1.81,0,33.26,0,33.26,0,16,10.94,24.4,26.43,24.4" transform="translate(-286 -218)"/><path class="cls-1" d="M482.7,443.37V420c-.13-.09-2.11-1.17-6.24-1.17s-8.71,2.5-8.78,6.06l0,75.45c3.91,1.72,13.7,3.64,23.65,3.64,22.73,0,33.06-15.38,33.06-29.86,0-25.25-17.42-40-41.67-30.77m11.64,47.56a43.75,43.75,0,0,1-11.31-.76V456.62c14.46-6.91,26.2-.24,26.2,16.75,0,12.61-9.09,17.16-14.89,17.56" transform="translate(-286 -218)"/><path class="cls-1" d="M593.61,296.66c28.17,0,49.71,19.47,49.71,51.61,0,28-18.21,50.3-49.71,50.3-31.3,0-49.53-22.31-49.53-50.3,0-32.14,21.55-51.61,49.53-51.61m.08,80.93c19,0,23.85-15.67,23.85-31.54,0-14.6-7.73-28.28-23.93-28.28-16,0-23.74,14.05-23.74,28.28,0,15.68,5.08,31.54,23.82,31.54" transform="translate(-286 -218)"/><path class="cls-1" d="M362.64,290.06a66,66,0,0,0-26.15-5.57c-8.83,0-20.23,3.9-20.23,18.07,0,22.53,56.31,13,56.31,56.58,0,28.48-22.26,39.3-48.22,39.3-14,0-20.27-1.87-33-5l2.4-23.48c8.85,4.84,19,8,29.08,8,9.77,0,22.82-5,22.82-16.74,0-24.77-56.31-14.55-56.31-57.56,0-29,22.26-39.64,44.92-39.64A96.07,96.07,0,0,1,365,268.65Z" transform="translate(-286 -218)"/><path class="cls-1" d="M519.79,264c-6.73,0-14.35,4-14.47,9.64v79.31c0,9.32,0,22.92-16.76,22.92a33,33,0,0,1-12.33-2.25v22.55a72.69,72.69,0,0,0,19.7,2.41c26.31,0,35.15-19.38,35.15-33.71V265.7A32.83,32.83,0,0,0,519.79,264" transform="translate(-286 -218)"/><path class="cls-1" d="M705,296.66c-11.89,0-19.15,3.84-24,7.71V265.45a32.38,32.38,0,0,0-10.91-1.66c-6.54,0-13.87,3.83-14,9.34v123h25V345.46c0-11.68,1.5-27.69,19-27.69s19,16,19,27.69v50.69h24.85V335.28c0-24.48-13.19-38.62-38.91-38.62" transform="translate(-286 -218)"/><path class="cls-1" d="M430.6,375.83c-16.74,0-16.74-13.6-16.74-22.92V320.43h16.85c5.29-.66,8.93-8,8.93-14.6,0-1.32-.05-2.53-.13-3.65H413.86v-33.6a32.22,32.22,0,0,0-11.26-1.74c-6.83,0-14.51,4-14.51,9.8v25.54h-10.4c-5.7,0-9.69,7.77-9.69,14.67,0,1.29,0,2.47.15,3.58h19.94v45c0,13.77,8.81,33.12,35.13,33.12a71.94,71.94,0,0,0,19.72-2.4V373.58a33.45,33.45,0,0,1-12.34,2.25" transform="translate(-286 -218)"/><path class="cls-3" d="M1220,218" transform="translate(-286 -218)"/><path class="cls-4" d="M1225,544.09" transform="translate(-286 -218)"/><path class="cls-3" d="M1220,218" transform="translate(-286 -218)"/></svg>